<svg width="21" height="14" viewBox="0 0 21 14" fill="none" xmlns="http://www.w3.org/2000/svg">
<path d="M8.15625 6.61719C9.24609 6.05469 9.84375 5.24609 9.84375 4.01562C9.84375 1.51953 7.98047 0.921875 5.87109 0.921875H0V13.3672H6.01172C8.29688 13.3672 10.4062 12.2773 10.4062 9.74609C10.4062 8.19922 9.66797 7.03906 8.15625 6.61719ZM2.70703 3.03125H5.30859C6.29297 3.03125 7.17188 3.3125 7.17188 4.47266C7.17188 5.52734 6.46875 5.94922 5.48438 5.94922H2.70703V3.03125ZM5.66016 11.2578H2.70703V7.8125H5.69531C6.92578 7.8125 7.66406 8.33984 7.66406 9.60547C7.66406 10.8711 6.75 11.2578 5.66016 11.2578ZM18.2461 2.78516V1.55469H13.2188V2.78516H18.2461ZM20.25 9.00781C20.25 6.33594 18.668 4.08594 15.8555 4.08594C13.0781 4.08594 11.2148 6.16016 11.2148 8.86719C11.2148 11.6797 13.0078 13.6133 15.8555 13.6133C18 13.6133 19.4062 12.6289 20.0742 10.5898H17.8945C17.6484 11.3633 16.6641 11.75 15.9258 11.75C14.4844 11.75 13.7109 10.9062 13.7109 9.46484H20.2148C20.2148 9.32422 20.25 9.14844 20.25 9.00781ZM13.7109 7.88281C13.7812 6.72266 14.5898 5.98438 15.75 5.98438C17.0156 5.98438 17.6484 6.6875 17.7539 7.88281H13.7109Z" fill="black"/>
</svg>
