<svg width="30" height="28" viewBox="0 0 30 28" fill="none" xmlns="http://www.w3.org/2000/svg">
<path d="M29.0176 13.522C29.0176 14.9349 26.7503 15.9706 26.3383 17.2453C25.9111 18.5665 27.1245 20.7404 26.3278 21.8402C25.523 22.9512 23.0847 22.4595 21.9792 23.2676C20.8844 24.068 20.6008 26.554 19.2857 26.9832C18.0168 27.3969 16.3385 25.5666 14.9321 25.5666C13.5257 25.5666 11.8475 27.3969 10.5786 26.9829C9.26343 26.554 8.97987 24.068 7.88509 23.2673C6.77952 22.4589 4.34061 22.9509 3.53648 21.8399C2.73974 20.7401 3.95318 18.5662 3.526 17.245C3.11391 15.9706 0.84668 14.9349 0.84668 13.522C0.84668 12.1092 3.11391 11.0735 3.526 9.79873C3.95318 8.47754 2.73974 6.30363 3.53648 5.20382C4.34123 4.09287 6.77952 4.58456 7.88509 3.77643C8.97987 2.97604 9.26343 0.490017 10.5786 0.0608701C11.8475 -0.352796 13.5257 1.47743 14.9321 1.47743C16.3385 1.47743 18.0168 -0.352795 19.2857 0.06118C20.6008 0.490018 20.8844 2.97604 21.9792 3.77674C23.0847 4.58518 25.5236 4.09318 26.3278 5.20413C27.1245 6.30394 25.9111 8.47785 26.3383 9.79904C26.7503 11.0735 29.0176 12.1092 29.0176 13.522Z" fill="#EDCB50"/>
<path d="M15.1087 6.60447L11.0536 14.2378C11.0091 14.3216 10.987 14.4155 10.9895 14.5104C10.9919 14.6052 11.0188 14.6978 11.0675 14.7793C11.1162 14.8607 11.185 14.9281 11.2674 14.975C11.3498 15.022 11.4429 15.0468 11.5377 15.0471H13.6693C13.7415 15.0471 13.8131 15.0613 13.8799 15.089C13.9466 15.1166 14.0073 15.1572 14.0584 15.2083C14.1095 15.2594 14.1501 15.3201 14.1777 15.387C14.2054 15.4538 14.2196 15.5254 14.2196 15.5977V20.1834C14.2196 20.7505 14.9725 20.9475 15.2495 20.4527L19.4832 12.8925C19.53 12.8087 19.5542 12.7141 19.5532 12.6181C19.5523 12.5221 19.5263 12.4281 19.4778 12.3452C19.4294 12.2624 19.3601 12.1936 19.277 12.1458C19.1938 12.098 19.0996 12.0728 19.0037 12.0726L16.6929 12.0701C16.5472 12.0699 16.4075 12.0118 16.3045 11.9086C16.2015 11.8053 16.1436 11.6654 16.1435 11.5195V6.86319C16.1444 6.28935 15.3777 6.09818 15.1087 6.60447Z" fill="black"/>
</svg>
