<svg width="95" height="25" viewBox="0 0 95 25" fill="none" xmlns="http://www.w3.org/2000/svg">
<path d="M6.28732 6.84375H17.8229V2.10536H0.895357V24H6.28732V16.1571H16.5484V11.4514H6.28732V6.84375ZM35.7264 7.59535H30.4978V15.2095C30.4978 16.778 30.171 17.9218 29.5828 18.6734C28.9946 19.425 28.1449 19.7845 27.0992 19.7845C26.2496 19.7845 25.596 19.4904 25.0732 18.9021C24.5503 18.3139 24.2889 17.5296 24.2889 16.5493V7.59535H19.093V17.6604C19.093 19.7191 19.6485 21.3857 20.8249 22.6275C22.0014 23.8693 23.5373 24.4902 25.4653 24.4902C27.4914 24.4902 29.1907 23.8039 30.4978 22.4314V24H35.7264V7.59535ZM54.7833 15.7977C54.718 13.1834 53.901 11.092 52.2998 9.49071C50.6658 7.92214 48.6725 7.10518 46.3196 7.10518C43.8687 7.10518 41.81 7.92214 40.1433 9.55607C38.4441 11.19 37.6271 13.2814 37.6271 15.7977C37.6271 18.3466 38.4441 20.438 40.1433 22.072C41.81 23.7059 43.8687 24.4902 46.2869 24.4902C48.1823 24.4902 49.8489 24.0654 51.2541 23.2157C52.6592 22.3661 53.705 21.0589 54.4239 19.3596L49.7835 18.412C49.0646 19.6864 47.9208 20.3073 46.2869 20.3073C45.4046 20.3073 44.653 20.0459 44.0321 19.4577C43.3785 18.9021 42.9537 18.1179 42.7576 17.1375H54.7833V15.7977ZM46.3196 11.3534C47.1039 11.3534 47.7901 11.5821 48.3783 12.007C48.9666 12.4645 49.3587 13.0854 49.6201 13.935H42.8557C43.0844 13.1507 43.5419 12.4971 44.1955 12.0396C44.8491 11.5821 45.5353 11.3534 46.3196 11.3534ZM61.9137 24V0.471426H56.6851V24H61.9137ZM80.9773 15.7977C80.9119 13.1834 80.0949 11.092 78.4937 9.49071C76.8598 7.92214 74.8664 7.10518 72.5135 7.10518C70.0626 7.10518 68.0039 7.92214 66.3373 9.55607C64.638 11.19 63.821 13.2814 63.821 15.7977C63.821 18.3466 64.638 20.438 66.3373 22.072C68.0039 23.7059 70.0626 24.4902 72.4808 24.4902C74.3762 24.4902 76.0428 24.0654 77.448 23.2157C78.8532 22.3661 79.8989 21.0589 80.6178 19.3596L75.9774 18.412C75.2585 19.6864 74.1148 20.3073 72.4808 20.3073C71.5985 20.3073 70.8469 20.0459 70.226 19.4577C69.5724 18.9021 69.1476 18.1179 68.9516 17.1375H80.9773V15.7977ZM72.5135 11.3534C73.2978 11.3534 73.9841 11.5821 74.5723 12.007C75.1605 12.4645 75.5526 13.0854 75.8141 13.935H69.0496C69.2783 13.1507 69.7358 12.4971 70.3894 12.0396C71.043 11.5821 71.7292 11.3534 72.5135 11.3534ZM93.761 7.36661C91.3428 7.36661 89.4474 8.51035 88.1076 10.7325V7.59535H82.879V24H88.1076V18.8695C88.1076 14.7846 89.9703 12.7259 93.761 12.7259H94.7087L94.9374 7.49732C94.5779 7.43196 94.1858 7.36661 93.761 7.36661Z" fill="black"/>
</svg>
