<svg width="26" height="24" viewBox="0 0 26 24" fill="none" xmlns="http://www.w3.org/2000/svg">
<g filter="url(#filter0_d_1_4592)">
<path d="M20.1367 4.59375C20.8398 4.06641 21.4727 3.43359 21.9648 2.69531C21.332 2.97656 20.5938 3.1875 19.8555 3.25781C20.6289 2.80078 21.1914 2.09766 21.4727 1.21875C20.7695 1.64062 19.9609 1.95703 19.1523 2.13281C18.4492 1.39453 17.5 0.972656 16.4453 0.972656C14.4062 0.972656 12.7539 2.625 12.7539 4.66406C12.7539 4.94531 12.7891 5.22656 12.8594 5.50781C9.80078 5.33203 7.05859 3.85547 5.23047 1.64062C4.91406 2.16797 4.73828 2.80078 4.73828 3.50391C4.73828 4.76953 5.37109 5.89453 6.39062 6.5625C5.79297 6.52734 5.19531 6.38672 4.70312 6.10547V6.14062C4.70312 7.93359 5.96875 9.41016 7.65625 9.76172C7.375 9.83203 7.02344 9.90234 6.70703 9.90234C6.46094 9.90234 6.25 9.86719 6.00391 9.83203C6.46094 11.3086 7.83203 12.3633 9.44922 12.3984C8.18359 13.3828 6.60156 13.9805 4.87891 13.9805C4.5625 13.9805 4.28125 13.9453 4 13.9102C5.61719 14.9648 7.55078 15.5625 9.66016 15.5625C16.4453 15.5625 20.1367 9.97266 20.1367 5.08594C20.1367 4.91016 20.1367 4.76953 20.1367 4.59375Z" fill="#EA7F4A"/>
</g>
<defs>
<filter id="filter0_d_1_4592" x="0" y="0.972656" width="25.9648" height="22.5898" filterUnits="userSpaceOnUse" color-interpolation-filters="sRGB">
<feFlood flood-opacity="0" result="BackgroundImageFix"/>
<feColorMatrix in="SourceAlpha" type="matrix" values="0 0 0 0 0 0 0 0 0 0 0 0 0 0 0 0 0 0 127 0" result="hardAlpha"/>
<feOffset dy="4"/>
<feGaussianBlur stdDeviation="2"/>
<feColorMatrix type="matrix" values="0 0 0 0 0.917647 0 0 0 0 0.498039 0 0 0 0 0.290196 0 0 0 0.19 0"/>
<feBlend mode="normal" in2="BackgroundImageFix" result="effect1_dropShadow_1_4592"/>
<feBlend mode="normal" in="SourceGraphic" in2="effect1_dropShadow_1_4592" result="shape"/>
</filter>
</defs>
</svg>
